<?xml version="1.0" standalone="no"?>
<!DOCTYPE svg PUBLIC "-//W3C//DTD SVG 20010904//EN"
 "http://www.w3.org/TR/2001/REC-SVG-20010904/DTD/svg10.dtd">
<svg version="1.0" xmlns="http://www.w3.org/2000/svg"
 width="1024.000000pt" height="1024.000000pt" viewBox="0 0 1024.000000 1024.000000"
 preserveAspectRatio="xMidYMid meet">
<metadata>
Created by potrace 1.14, written by Peter Selinger 2001-2017
</metadata>
<g transform="translate(0.000000,1024.000000) scale(0.100000,-0.100000)"
fill="#000000" stroke="none">
<path d="M7913 8916 c-72 -36 -116 -86 -145 -162 -26 -71 -53 -188 -69 -304
-15 -105 -40 -252 -50 -290 -6 -19 -18 -97 -29 -173 -10 -77 -20 -141 -23
-143 -2 -2 -57 1 -123 6 -65 6 -175 15 -244 20 -69 5 -217 15 -330 24 -424 31
-810 39 -1622 33 -436 -3 -863 -11 -948 -16 -85 -6 -225 -15 -310 -21 -288
-18 -434 -31 -575 -50 -206 -27 -275 -32 -280 -17 -3 7 -9 39 -14 72 -5 33
-25 134 -44 225 -20 91 -45 206 -55 255 -11 50 -23 119 -27 155 -10 91 -67
238 -104 268 -9 7 -41 25 -71 39 -51 23 -62 25 -145 19 -49 -4 -94 -11 -100
-17 -5 -5 -29 -9 -55 -9 -25 0 -76 -7 -115 -16 -38 -8 -90 -17 -115 -20 -152
-17 -180 -29 -264 -111 -40 -38 -61 -105 -51 -165 3 -24 9 -79 11 -124 5 -79
5 -80 -21 -92 -14 -7 -33 -12 -41 -12 -29 0 -99 -42 -149 -89 -30 -29 -80 -61
-125 -81 -86 -38 -100 -47 -100 -66 0 -8 -16 -37 -35 -65 -19 -28 -39 -68 -45
-89 -12 -43 -51 -96 -79 -105 -21 -7 -48 -64 -61 -136 -6 -29 -21 -74 -34 -99
-13 -25 -26 -65 -30 -90 -4 -24 -11 -49 -15 -55 -5 -5 -14 -28 -21 -50 -7 -22
-19 -49 -27 -61 -10 -16 -12 -51 -9 -141 2 -67 7 -126 11 -132 4 -7 2 -33 -3
-59 -22 -99 -23 -139 -3 -164 12 -14 16 -28 11 -38 -11 -20 4 -107 28 -166 29
-69 35 -114 33 -231 -2 -69 1 -103 9 -103 6 0 16 -11 22 -25 6 -13 20 -27 32
-31 12 -3 29 -13 39 -22 9 -8 20 -12 23 -9 10 10 -13 33 -45 47 -16 6 -34 23
-40 37 -13 28 -28 203 -17 203 4 0 16 -5 26 -10 21 -11 70 20 160 102 l45 41
7 -34 c4 -19 10 -78 13 -132 3 -55 7 -102 9 -106 3 -4 14 -43 26 -86 18 -66
20 -96 15 -187 -5 -96 -3 -108 11 -108 13 0 15 -7 11 -36 -3 -20 -13 -44 -21
-53 -16 -17 -26 -157 -13 -178 4 -6 -2 -21 -13 -33 -25 -29 -25 -35 0 -58 19
-18 19 -21 4 -103 -9 -46 -18 -106 -21 -134 -5 -38 -13 -56 -37 -80 -17 -16
-45 -48 -61 -70 -49 -65 -73 -85 -100 -85 -14 0 -25 -4 -25 -10 0 -16 53 -11
75 8 11 9 33 34 48 55 34 45 67 77 80 77 6 0 8 -38 5 -92 -4 -80 -7 -93 -26
-106 -15 -10 -22 -25 -22 -48 0 -19 -5 -34 -10 -34 -7 0 -7 -6 0 -19 23 -43 4
-167 -37 -245 -21 -39 -23 -48 -10 -43 19 7 23 -14 8 -42 -6 -10 -15 -66 -21
-126 -11 -108 -24 -149 -56 -176 -16 -13 -17 -8 -12 69 3 45 1 82 -3 82 -5 0
-17 -20 -27 -44 -11 -24 -25 -47 -31 -50 -6 -4 -11 -12 -11 -18 0 -6 11 -1 25
12 l25 23 0 -69 c0 -38 -7 -96 -15 -129 -8 -33 -14 -73 -15 -88 0 -43 -29 -96
-60 -112 -18 -9 -45 -12 -81 -9 -41 4 -75 -1 -138 -20 -90 -28 -98 -32 -87
-43 4 -4 37 3 74 16 36 12 86 25 110 28 l43 4 -6 -118 c-7 -145 -10 -157 -38
-186 -12 -13 -50 -53 -85 -90 -35 -37 -67 -67 -71 -67 -13 0 -152 -114 -201
-164 -60 -62 -74 -61 -65 7 4 28 11 62 16 74 5 13 6 29 3 38 -9 23 16 88 43
111 19 16 27 35 32 80 8 61 28 111 56 134 20 17 45 75 45 106 0 12 4 25 9 28
4 3 11 21 14 39 3 18 14 53 25 78 11 24 25 61 32 81 6 20 24 53 40 73 16 20
30 39 32 43 2 4 20 19 40 35 37 27 37 27 22 62 -7 19 -14 45 -14 58 0 33 48
149 68 163 16 12 16 14 -2 27 -12 9 -17 20 -13 31 4 9 3 16 -2 16 -16 0 -33
-29 -27 -47 3 -10 -6 -42 -19 -71 -26 -55 -33 -143 -16 -187 6 -16 -1 -28 -34
-57 -24 -21 -55 -61 -70 -90 -32 -61 -75 -175 -75 -199 0 -9 -7 -30 -15 -45
-8 -16 -15 -40 -15 -53 0 -13 -19 -49 -42 -79 -48 -62 -68 -110 -68 -164 0
-27 -5 -38 -19 -43 -12 -4 -23 -25 -34 -68 -24 -89 -39 -184 -36 -221 2 -19
-5 -46 -19 -67 -40 -65 -52 -201 -43 -479 4 -130 19 -228 41 -268 11 -21 33
-77 50 -126 16 -49 38 -104 49 -121 10 -17 23 -47 30 -66 6 -19 21 -45 34 -59
12 -14 35 -51 50 -82 15 -32 31 -58 35 -58 5 0 26 -26 48 -57 63 -93 147 -169
224 -204 19 -9 60 -28 90 -43 30 -14 72 -29 93 -33 27 -4 42 -14 54 -34 17
-28 53 -40 53 -18 0 21 -55 69 -80 69 -31 0 -97 23 -112 38 -7 7 -19 12 -28
12 -9 0 -20 4 -25 9 -6 5 -26 14 -45 20 -52 16 -179 143 -243 242 -63 98 -63
99 -29 171 16 35 32 71 35 80 7 19 -4 30 -19 20 -13 -9 -54 -97 -54 -116 0
-41 -28 -22 -63 41 -21 38 -21 43 -2 43 8 0 15 8 15 18 0 10 4 22 9 27 5 6 14
39 20 75 18 104 43 164 70 168 44 7 101 -71 101 -138 0 -17 17 -65 39 -108 34
-69 39 -87 45 -181 5 -89 11 -113 37 -165 33 -66 75 -116 96 -116 21 0 15 21
-8 27 -17 5 -20 11 -15 37 16 79 18 106 8 106 -6 0 -14 -21 -17 -47 -4 -27 -8
-52 -9 -57 -1 -5 -14 12 -29 38 -23 40 -27 61 -29 141 -2 51 0 96 3 99 12 13
39 -7 45 -33 18 -83 29 -106 51 -104 12 2 34 -4 50 -12 15 -8 38 -15 50 -15
25 0 87 -67 111 -120 9 -19 18 -62 21 -95 5 -44 10 -60 21 -60 37 0 9 145 -42
216 -30 42 -138 102 -185 102 -30 -1 -40 13 -56 77 -8 31 -22 59 -32 65 -46
26 -82 68 -99 117 -11 29 -22 58 -26 63 -4 6 -11 34 -15 64 -5 36 -15 61 -29
75 -31 29 -36 47 -42 145 -3 47 -8 93 -10 101 -3 8 -7 64 -10 123 -4 81 -1
119 10 150 8 24 17 93 19 159 4 84 10 123 22 141 9 14 25 62 36 107 10 45 24
91 30 102 8 16 8 22 -2 29 -11 7 -11 11 -1 21 7 7 17 13 21 13 12 0 75 85 95
127 9 19 16 53 15 75 -2 29 4 48 19 68 14 17 22 42 22 66 0 33 6 43 44 75 38
31 45 43 50 87 4 28 12 60 19 71 6 12 12 32 14 46 6 64 9 76 29 92 31 26 54
90 64 182 9 87 20 141 51 251 24 85 39 246 25 268 -8 12 -5 22 11 39 26 29 42
108 49 253 3 61 12 156 21 213 14 93 14 104 0 120 -14 16 -14 19 8 40 l24 23
-19 32 c-25 41 -25 94 0 132 28 43 35 106 17 159 -12 35 -13 53 -5 80 12 38 7
76 -28 206 -10 40 -18 106 -18 170 -1 78 -7 122 -23 170 -33 101 -42 151 -32
177 14 37 11 109 -6 150 -13 30 -13 43 -4 65 6 16 9 51 7 79 -4 37 3 83 23
163 16 61 29 125 29 142 0 26 6 34 39 50 31 15 40 25 39 44 -1 50 16 106 39
127 12 12 23 29 23 37 0 8 21 31 46 52 25 21 52 53 60 72 8 19 32 54 54 78 22
24 40 49 40 55 0 15 42 48 61 49 9 0 22 7 29 15 14 17 28 9 35 -21 2 -10 19
-59 36 -109 17 -49 35 -106 40 -125 7 -30 50 -176 74 -249 l7 -24 -23 22 c-26
24 -38 25 -91 11 -29 -8 -41 -19 -57 -54 -20 -41 -21 -46 -7 -112 8 -38 19
-82 25 -97 9 -22 17 -76 35 -223 2 -11 10 -54 19 -95 8 -41 23 -119 32 -174 9
-55 23 -131 31 -170 8 -38 23 -115 34 -170 10 -55 23 -120 29 -145 5 -25 15
-80 21 -123 11 -76 11 -80 -11 -103 -20 -22 -21 -29 -15 -126 7 -102 22 -184
36 -203 4 -5 11 -29 15 -52 6 -37 10 -42 40 -47 31 -6 34 -11 44 -56 6 -28 18
-105 27 -173 8 -67 22 -153 30 -192 8 -38 14 -92 14 -119 0 -27 11 -99 25
-160 40 -176 69 -357 100 -620 8 -71 28 -197 44 -280 32 -165 33 -167 91 -546
16 -99 22 -190 23 -336 2 -172 4 -204 20 -227 30 -46 74 -257 97 -462 9 -79
12 -100 30 -200 5 -27 12 -81 15 -120 8 -96 20 -128 54 -148 15 -9 46 -35 68
-58 22 -23 56 -51 76 -63 19 -11 52 -33 73 -47 50 -33 139 -81 184 -99 19 -7
71 -31 115 -53 44 -21 98 -45 120 -53 118 -44 187 -66 245 -79 36 -9 76 -19
90 -24 33 -12 170 -47 240 -61 30 -6 73 -15 95 -21 22 -5 87 -14 145 -20 194
-20 265 -28 325 -38 313 -52 1185 -42 1510 18 33 6 81 13 108 15 138 13 306
48 492 104 55 16 114 32 130 36 83 17 209 56 266 84 35 17 75 34 89 38 35 9
188 86 234 118 21 14 44 26 51 26 7 0 49 26 94 57 45 32 106 73 135 92 l53 34
22 181 c12 100 26 195 31 211 10 37 38 241 46 350 6 65 14 94 44 155 35 69 39
85 50 212 9 104 9 142 0 159 -13 22 -10 89 9 249 6 47 15 123 20 170 5 47 14
112 20 145 5 33 20 119 32 190 11 72 27 155 34 185 7 30 18 102 24 160 11 99
22 170 71 437 11 62 20 127 20 144 0 18 5 58 10 88 16 85 49 308 73 484 21
153 23 159 49 173 28 15 29 15 83 210 29 103 29 182 -1 215 -19 21 -21 105 -3
123 5 6 9 26 9 45 0 20 5 54 11 76 9 36 15 73 38 220 5 28 13 73 19 100 6 28
15 91 22 140 6 50 20 131 30 180 70 346 94 488 86 520 -5 20 -13 25 -36 25
-17 0 -38 4 -48 9 -9 5 -35 13 -57 18 -35 7 -40 12 -37 33 1 13 15 37 30 53
26 28 27 32 34 190 4 89 11 185 16 212 10 48 22 119 57 325 9 52 21 127 28
165 6 39 12 102 12 141 0 60 -4 76 -28 112 -15 23 -46 54 -68 69 -36 24 -56
28 -167 37 -70 5 -130 14 -133 19 -4 5 -23 7 -43 4 -33 -5 -36 -4 -36 19 0 15
-6 24 -15 24 -11 0 -15 -11 -15 -36 0 -31 -2 -35 -15 -24 -8 6 -29 16 -47 20
-18 5 -59 18 -90 29 -70 26 -110 25 -165 -3z m129 -40 c24 -8 68 -19 99 -26
l57 -11 5 -47 c8 -66 -1 -280 -13 -302 -5 -10 -9 -40 -9 -67 2 -54 -29 -118
-62 -128 -10 -4 -19 -13 -19 -20 0 -8 -9 -19 -19 -25 -32 -17 -36 -12 -11 15
13 14 20 28 17 32 -11 10 -58 -39 -52 -55 3 -9 0 -12 -9 -9 -8 3 -50 -12 -93
-33 -64 -32 -84 -48 -113 -90 -28 -42 -35 -63 -38 -116 -5 -70 11 -89 23 -26
13 72 28 111 56 141 15 17 31 31 35 31 4 0 15 6 23 13 22 19 88 44 136 51 22
4 57 11 79 17 21 6 49 8 62 5 26 -7 30 9 15 49 -5 11 -4 31 1 45 30 81 52 264
50 426 l-2 100 68 -7 c37 -5 119 -13 182 -18 127 -12 149 -22 182 -81 17 -31
19 -48 13 -140 -6 -97 -31 -276 -41 -292 -3 -4 -9 -35 -14 -70 -4 -35 -13 -81
-19 -103 -17 -68 -33 -293 -27 -379 l6 -82 -34 -34 c-18 -19 -43 -53 -55 -75
-11 -22 -29 -51 -38 -65 -17 -24 -17 -25 1 -10 18 14 19 13 12 -15 -20 -79
-26 -83 -213 -135 l-101 -28 -16 42 c-9 23 -16 51 -16 62 0 29 -44 110 -91
166 -56 67 -62 88 -65 233 -2 72 -4 167 -5 213 -2 45 2 86 7 92 5 5 27 13 49
19 102 25 150 41 164 57 15 15 14 16 -7 9 -13 -4 -29 -2 -36 5 -11 8 -18 7
-29 -5 -9 -8 -23 -15 -32 -15 -29 0 -139 -41 -150 -56 -6 -9 -16 -14 -22 -12
-14 4 -72 -69 -80 -101 -3 -14 -9 -30 -13 -36 -5 -5 -8 -21 -8 -35 0 -14 -3
-53 -7 -87 -5 -44 -4 -63 4 -63 6 0 11 15 12 33 1 17 5 43 9 57 6 19 8 9 9
-37 1 -63 17 -123 52 -202 11 -24 19 -45 17 -46 -16 -16 -108 128 -108 168 0
9 -5 17 -11 17 -22 0 11 -137 38 -153 7 -4 13 -14 13 -22 0 -15 68 -75 85 -75
6 0 24 -13 40 -30 31 -32 45 -38 45 -17 -1 17 -36 57 -51 57 -9 0 -10 3 -2 11
23 23 123 -65 123 -107 0 -13 5 -24 11 -24 7 0 9 -10 5 -24 -3 -14 -2 -28 4
-31 6 -3 7 -17 4 -31 -5 -19 -2 -24 12 -24 11 0 14 -3 8 -9 -5 -5 -38 -11 -74
-14 -36 -3 -87 -11 -115 -17 -61 -13 -338 -50 -382 -50 l-32 0 24 88 c15 51
28 142 35 222 20 267 52 507 105 800 8 41 16 94 19 116 5 45 16 94 48 224 43
173 135 240 270 196z m-5173 -78 c70 -37 116 -146 146 -348 8 -52 26 -144 40
-205 59 -262 104 -578 84 -591 -4 -2 -1 -18 8 -34 8 -17 18 -70 23 -118 8 -76
14 -130 34 -279 l5 -32 -52 5 c-29 3 -55 8 -59 10 -4 3 -58 9 -120 14 -62 6
-174 19 -248 29 -74 11 -171 24 -215 30 -121 15 -185 31 -205 51 -10 10 -27
48 -40 86 -12 38 -28 83 -35 99 -21 47 -40 103 -71 200 -15 50 -40 129 -55
177 -15 49 -22 85 -17 82 6 -4 13 -2 17 3 7 12 110 33 128 26 18 -7 26 -42 13
-58 -7 -8 -9 -23 -5 -32 4 -10 12 -54 19 -98 l11 -80 60 -3 c106 -6 149 37
111 108 -11 21 -10 30 1 53 17 33 9 64 -17 72 -19 6 -35 34 -25 43 3 4 61 8
129 10 l124 4 32 -68 c31 -69 48 -162 36 -208 -3 -13 -16 -28 -28 -35 -22 -11
-22 -11 5 -8 26 4 27 2 27 -36 0 -22 -7 -67 -16 -99 -9 -32 -14 -61 -12 -64 3
-3 21 3 40 12 27 12 37 26 48 62 8 28 16 40 18 30 6 -29 18 -20 31 23 7 22 21
49 31 59 20 20 67 121 94 203 20 61 20 130 0 183 -18 46 -44 63 -163 106 -54
20 -70 31 -106 78 -45 59 -60 95 -70 175 -10 82 -44 216 -71 284 -15 38 -22
67 -16 73 10 10 135 25 227 27 45 1 72 -5 104 -21z m-448 -90 c0 -35 5 -72 10
-83 7 -16 8 -12 5 15 -6 53 4 92 25 97 11 3 19 13 20 22 1 22 24 -30 49 -113
21 -65 70 -288 66 -293 -2 -2 -30 8 -63 21 -124 51 -293 41 -425 -25 l-58 -29
-4 22 c-7 34 -18 137 -19 184 -1 35 5 50 43 97 53 65 68 73 162 88 40 6 95 22
123 34 27 13 53 24 58 24 4 1 7 -27 8 -61z m-31 -348 c9 -13 11 -13 19 -1 8
12 19 12 72 2 60 -12 115 -38 104 -49 -3 -3 -29 -7 -58 -8 -28 -1 -46 0 -39 3
19 8 14 23 -8 23 -11 0 -20 -4 -20 -9 0 -5 -9 -7 -20 -4 -21 6 -28 -11 -9 -22
5 -4 36 -9 67 -11 31 -2 58 -8 60 -14 2 -5 8 -8 12 -5 5 3 16 -8 25 -25 8 -16
11 -30 6 -30 -6 0 -15 9 -21 21 -7 13 -19 19 -33 17 -21 -3 -23 -23 -2 -23 6
0 25 -12 42 -25 22 -18 33 -37 38 -67 7 -42 6 -43 -22 -44 -52 -2 -127 -2
-288 0 -202 3 -188 5 -182 -18 7 -30 -7 -42 -54 -48 -44 -6 -44 -6 -26 15 10
11 21 39 24 62 3 23 12 44 20 47 21 8 45 61 41 91 -3 25 2 29 52 45 30 10 63
16 72 13 10 -2 20 0 23 5 4 5 33 7 65 4 33 -2 60 -1 60 4 0 12 -108 20 -161
12 -44 -7 -45 -6 -41 16 3 14 13 25 26 28 77 16 144 14 156 -5z m-207 -29
c-13 -11 -23 -24 -23 -29 0 -13 -26 -23 -43 -17 -9 4 -11 -7 -9 -41 5 -51 -20
-88 -64 -97 -24 -4 -86 12 -100 26 -11 11 -34 8 -34 -3 0 -5 7 -10 15 -10 9 0
27 -7 40 -16 14 -9 40 -16 60 -17 19 -1 35 -5 35 -9 0 -4 -4 -8 -9 -8 -4 0 -6
-11 -4 -25 3 -14 -1 -31 -11 -40 -9 -9 -16 -25 -16 -36 0 -17 -7 -19 -65 -19
-68 0 -87 -14 -35 -25 l30 -7 -32 -41 c-18 -23 -37 -48 -43 -55 -5 -8 -20 -25
-32 -38 -13 -14 -23 -30 -24 -37 0 -9 -2 -8 -6 1 -3 7 -28 24 -56 38 -69 36
-86 58 -87 119 -1 36 -4 44 -9 30 -5 -11 -7 -31 -6 -45 1 -14 3 -30 4 -37 2
-18 40 -51 94 -80 51 -28 55 -34 32 -53 -8 -7 -15 -18 -15 -24 0 -7 -11 -23
-24 -35 -14 -13 -30 -36 -37 -53 -10 -24 -16 -28 -36 -23 -22 5 -24 3 -17 -17
18 -53 -4 -133 -40 -144 -29 -10 -103 -6 -146 8 -19 5 -50 24 -67 41 -32 30
-49 33 -38 6 7 -17 81 -73 98 -74 7 -1 19 -4 27 -8 8 -3 31 -8 50 -9 l35 -3
-3 -55 c-3 -69 -34 -104 -111 -124 -61 -16 -103 -8 -132 23 -10 11 -27 26 -38
33 -20 14 -20 15 4 98 14 47 25 95 25 106 0 12 13 32 30 45 26 21 30 31 30 72
0 69 19 135 40 142 37 12 68 46 86 94 14 40 29 58 71 88 51 37 76 70 31 41
-13 -8 -31 -18 -41 -21 -15 -6 -14 -1 7 24 14 17 26 39 26 49 0 11 9 24 20 30
17 9 19 8 13 -7 -4 -12 6 -7 28 14 19 17 51 38 72 47 38 15 40 15 58 -7 10
-12 18 -34 19 -48 0 -15 7 -32 15 -39 13 -11 14 -8 9 19 -5 25 -2 37 17 57
l24 26 -26 -7 c-18 -4 -31 -1 -43 11 -16 15 -14 20 38 68 45 43 67 56 133 75
43 13 105 34 138 47 74 29 99 31 68 5z m482 -164 c18 -62 18 -67 2 -67 -9 0
-19 22 -27 58 -7 31 -17 66 -23 77 -10 20 -10 20 12 1 11 -11 28 -42 36 -69z
m15 53 c6 -11 9 -20 8 -20 -2 0 -11 9 -21 20 -9 11 -13 20 -7 20 5 0 14 -9 20
-20z m85 -61 c6 -4 33 -12 62 -19 29 -6 63 -22 77 -35 32 -30 43 -101 27 -180
-19 -88 -26 -92 -28 -13 -2 74 -18 110 -68 157 -31 29 -108 71 -130 71 -8 0
-15 6 -15 13 0 14 54 18 75 6z m-3 -59 c49 -21 85 -62 105 -118 16 -45 8 -197
-13 -252 -10 -24 -13 -27 -9 -9 10 53 18 227 11 254 -5 18 -12 25 -21 21 -9
-3 -15 0 -15 8 0 15 -28 42 -35 34 -2 -2 2 -26 10 -53 14 -45 20 -87 8 -55
-26 71 -65 138 -87 150 -28 14 -35 40 -12 40 7 0 34 -9 58 -20z m-273 -45 c68
-3 125 -6 128 -8 4 -5 -471 -16 -476 -11 -2 2 2 11 10 20 11 14 28 15 114 9
55 -4 156 -8 224 -10z m250 -58 c21 -43 31 -73 26 -84 -5 -14 -10 -8 -20 26
-8 24 -17 47 -22 50 -4 3 -16 23 -26 44 -31 69 5 36 42 -36z m-389 -6 c0 -15
-5 -18 -21 -14 -15 4 -27 0 -35 -12 -13 -17 -14 -16 -14 13 0 30 2 32 35 32
28 0 35 -4 35 -19z m488 -36 c-3 -3 -9 2 -12 12 -6 14 -5 15 5 6 7 -7 10 -15
7 -18z m3757 -71 c132 -8 274 -19 315 -23 l75 -8 -55 -2 -55 -3 30 -13 c34
-16 111 -20 119 -6 4 5 0 11 -6 14 -37 12 145 5 285 -12 89 -11 188 -23 220
-26 41 -5 57 -11 57 -21 0 -13 -23 -14 -157 -9 -87 3 -221 10 -298 15 -77 5
-149 8 -160 7 -35 -3 -323 14 -495 29 -91 8 -211 19 -267 24 -57 5 -169 12
-250 15 -82 3 -251 10 -378 16 -252 11 -465 6 -650 -16 -144 -18 -453 -40
-815 -60 -335 -18 -535 -33 -619 -45 -36 -5 -109 -14 -161 -19 -53 -6 -109
-13 -126 -17 -28 -5 -32 -3 -36 20 -6 29 1 31 122 42 41 3 79 9 84 12 6 3 19
6 30 7 28 2 134 15 226 27 41 5 154 14 250 19 96 5 236 15 310 23 78 8 268 14
450 15 173 1 316 4 319 7 3 2 318 4 700 4 494 -1 766 -5 936 -16z m-1148 -30
c-3 -3 -12 -4 -19 -1 -8 3 -5 6 6 6 11 1 17 -2 13 -5z m552 -29 c4 -4 -262 -8
-744 -10 -60 0 -137 2 -170 5 -33 3 49 6 183 7 134 1 245 3 247 5 5 5 478 -2
484 -7z m-3702 -17 c-3 -8 -6 -5 -6 6 -1 11 2 17 5 13 3 -3 4 -12 1 -19z m56
-8 c3 -11 1 -23 -4 -26 -5 -3 -9 6 -9 20 0 31 6 34 13 6z m3765 13 c-16 -2
-40 -2 -55 0 -16 2 -3 4 27 4 30 0 43 -2 28 -4z m-3332 -100 c-11 -94 -25
-107 -25 -23 -1 41 2 86 6 99 l6 25 9 -25 c6 -13 7 -47 4 -76z m3537 67 c3 -3
-1 -77 -8 -165 -7 -88 -16 -230 -20 -315 -4 -85 -7 -156 -8 -156 -4 -4 -1219
-7 -1494 -5 l-292 2 1 37 c0 20 -7 93 -16 162 -9 69 -19 190 -22 270 -3 80 -6
150 -7 155 -1 6 51 12 133 15 168 6 1728 6 1733 0z m-1923 -2 c1 -5 21 -324
24 -373 2 -27 6 -98 11 -157 l8 -108 -90 0 c-50 0 -110 3 -135 6 -40 6 -44 9
-41 28 10 48 -45 312 -99 479 -15 49 -28 95 -28 102 0 12 28 15 148 18 81 1
159 4 175 5 15 1 27 1 27 0z m2267 -12 c1 -1 -2 -76 -7 -166 -5 -91 -9 -226
-10 -302 l0 -136 -72 -6 c-40 -3 -108 -7 -150 -9 l-78 -2 0 140 c0 77 7 217
15 310 8 94 15 174 15 179 0 7 279 -1 287 -8z m543 -22 c168 -9 319 -17 335
-18 l30 -1 -3 -105 c-5 -149 -39 -340 -70 -388 -12 -18 -338 -47 -661 -59
l-164 -6 6 89 c4 49 9 170 12 269 3 99 8 195 11 213 l5 33 97 -5 c53 -2 234
-12 402 -22z m-3190 4 c0 -6 18 -68 39 -137 46 -151 59 -211 75 -356 7 -60 12
-110 12 -111 -2 -2 -521 26 -671 36 -211 14 -229 18 -233 50 -9 89 -57 400
-68 436 -5 20 -1 21 131 28 75 3 167 13 205 21 37 8 128 19 202 25 278 21 308
22 308 8z m4620 -273 c0 4 8 1 17 -6 14 -12 16 -12 8 0 -6 11 -4 13 9 8 10 -4
22 -7 27 -7 5 0 9 -7 9 -16 0 -10 -6 -14 -15 -10 -8 3 -15 0 -15 -7 0 -8 -3
-8 -9 2 -5 7 -14 10 -20 7 -6 -4 -11 -2 -11 4 0 6 -5 8 -12 4 -7 -5 -8 -3 -3
6 6 10 4 12 -8 7 -11 -4 -14 -2 -10 9 4 11 9 12 19 3 8 -6 14 -8 14 -4z
m-6454 -83 c9 -49 21 -72 39 -72 8 0 15 -4 15 -9 0 -12 80 -39 185 -62 50 -11
110 -25 135 -31 25 -6 65 -12 90 -13 25 -1 79 -7 120 -13 151 -23 324 -42 386
-42 63 0 64 -1 64 -26 l0 -27 -92 6 c-104 6 -264 29 -413 58 -131 26 -144 28
-185 35 -89 14 -267 57 -295 70 -60 30 -75 39 -75 46 0 5 -5 8 -12 8 -28 0
-47 31 -41 68 11 73 66 75 79 4z m6364 45 c0 -17 37 -39 45 -27 3 6 -1 10 -9
10 -9 0 -16 7 -16 15 0 21 12 19 38 -6 12 -11 27 -17 33 -13 7 4 10 1 7 -7
-13 -39 -336 -160 -346 -129 -6 17 -24 11 -53 -16 -22 -21 -55 -31 -220 -63
-305 -61 -512 -90 -809 -115 -279 -24 -568 -45 -695 -52 -158 -7 -860 -11
-985 -5 l-135 7 165 7 c91 4 266 10 390 14 209 7 225 9 223 26 -1 13 4 17 14
12 23 -8 622 13 808 30 88 8 201 17 250 20 84 6 289 31 450 54 39 6 138 20
220 31 203 28 188 25 297 54 53 14 107 26 120 26 14 0 28 3 32 7 4 4 33 17 64
28 54 19 71 36 86 88 6 20 26 23 26 4z m145 -109 c-7 -35 -19 -97 -28 -138 -9
-41 -21 -100 -27 -130 -6 -30 -17 -106 -25 -169 -7 -62 -17 -120 -20 -130 -4
-9 -13 -59 -20 -111 -8 -52 -18 -121 -24 -152 -6 -32 -16 -84 -22 -115 -5 -32
-16 -89 -24 -128 -7 -38 -17 -101 -22 -140 l-8 -69 -55 -29 c-30 -16 -55 -32
-55 -37 0 -5 -3 -12 -7 -16 -5 -4 -8 -2 -8 4 0 16 -29 15 -64 -3 -15 -8 -36
-15 -46 -15 -10 0 -25 -6 -32 -13 -7 -8 -37 -17 -66 -21 l-53 -7 6 81 c4 45
13 111 20 148 17 77 19 132 6 132 -5 0 -11 -21 -14 -47 -10 -93 -31 -213 -38
-213 -3 0 0 37 8 83 7 45 17 116 23 157 29 238 89 596 110 660 24 73 71 231
81 272 11 44 14 48 48 53 75 12 128 27 176 50 28 13 61 27 75 31 14 3 27 10
30 13 9 11 75 61 81 61 4 0 1 -28 -6 -62z m-6578 -38 c15 -8 33 -20 38 -27 19
-21 189 -82 289 -102 55 -12 101 -23 104 -25 2 -3 8 -42 13 -88 5 -46 14 -105
20 -133 6 -27 19 -106 30 -175 35 -225 39 -244 59 -325 11 -44 26 -127 35
-185 8 -58 20 -136 26 -175 18 -115 27 -190 23 -194 -4 -4 -95 18 -219 53 -27
8 -84 28 -125 44 -62 25 -78 36 -92 63 -22 45 -35 108 -49 226 -6 54 -18 113
-25 132 -8 18 -14 48 -14 65 0 18 -7 59 -16 91 -9 33 -22 96 -29 140 -16 92
-63 358 -70 394 -2 14 -9 60 -15 104 -6 43 -15 89 -19 100 -5 12 -11 36 -15
52 l-6 30 14 -25 c8 -14 27 -32 43 -40z m-799 -35 c31 -33 72 -48 117 -41 45
7 81 20 99 35 18 15 19 15 12 -9 -4 -14 -12 -44 -18 -68 -6 -26 -23 -56 -42
-75 -18 -18 -23 -25 -12 -16 44 34 56 32 56 -11 0 -21 -5 -42 -11 -45 -24 -15
-155 -9 -212 9 -55 18 -58 20 -52 47 4 16 1 54 -5 85 -15 70 -6 124 19 124 10
0 32 -16 49 -35z m6928 -92 c-8 -21 -28 -72 -44 -113 -37 -91 -77 -274 -102
-470 -42 -327 -49 -381 -65 -510 -24 -204 -16 -186 -91 -199 -35 -6 -97 -15
-137 -21 -39 -6 -88 -16 -108 -21 -20 -5 -50 -9 -67 -9 -17 0 -42 -4 -56 -10
-24 -9 -144 -24 -293 -37 l-71 -6 14 69 c8 38 13 77 10 87 -2 10 1 35 8 55 13
36 30 187 28 247 0 17 4 45 10 63 5 19 12 77 13 130 2 54 9 122 14 152 6 30
18 120 27 200 15 141 36 243 56 267 9 11 53 17 188 28 36 3 88 10 115 16 28 5
75 14 106 18 65 10 104 18 289 65 178 45 172 45 156 -1z m-4696 -29 c47 -2
105 -9 130 -14 25 -6 226 -12 448 -14 221 -1 405 -6 409 -9 3 -4 229 -8 502
-9 288 -1 454 -4 396 -8 -235 -17 -479 -29 -485 -25 -4 3 -297 5 -651 6 -591
1 -858 8 -996 24 -47 6 -53 9 -53 30 0 30 21 35 130 28 47 -2 123 -7 170 -9z
m-755 -28 c50 -9 130 -23 179 -32 50 -8 141 -20 204 -25 62 -5 119 -12 125
-16 7 -4 28 -9 47 -10 86 -5 100 -12 100 -46 0 -18 5 -108 10 -202 12 -211 34
-372 80 -575 24 -108 43 -208 69 -362 l17 -107 -45 5 c-25 3 -122 17 -216 30
-93 13 -188 26 -210 28 -76 8 -345 54 -345 59 0 1 -12 70 -26 152 -14 83 -29
184 -35 225 -5 41 -16 111 -24 155 -9 44 -20 107 -25 140 -6 33 -22 114 -35
180 -14 66 -33 170 -41 230 -8 61 -18 130 -21 154 l-6 43 54 -5 c30 -3 95 -13
144 -21z m4555 -59 c0 -2 -11 -31 -25 -65 -15 -36 -29 -99 -35 -150 -10 -93
-21 -202 -45 -432 -8 -80 -19 -176 -24 -215 -5 -38 -7 -81 -5 -95 3 -14 1 -50
-4 -80 -5 -30 -17 -100 -27 -156 l-18 -101 -151 -18 c-153 -18 -310 -29 -536
-38 -69 -3 -172 -10 -230 -16 -58 -5 -185 -12 -283 -15 l-177 -6 6 97 c9 147
70 678 79 693 2 4 13 67 24 142 11 74 24 146 30 159 5 14 15 68 22 121 l12 95
75 7 c41 3 143 6 226 7 83 0 216 4 296 9 80 5 228 14 330 20 102 6 226 17 275
24 86 13 185 20 185 13z m-3157 -24 c-13 -2 -33 -2 -45 0 -13 2 -3 4 22 4 25
0 35 -2 23 -4z m-2847 -29 c51 -24 58 -25 105 -14 29 7 54 9 58 4 9 -10 31
-94 31 -119 0 -9 -13 -21 -30 -27 -25 -8 -28 -13 -19 -24 9 -11 15 -11 25 -3
11 9 14 5 14 -23 0 -19 3 -69 6 -111 7 -75 6 -77 -19 -86 -14 -5 -31 -18 -38
-28 -8 -10 -25 -24 -39 -31 -14 -7 -38 -20 -55 -30 -16 -11 -37 -17 -45 -15
-16 4 -40 66 -40 101 0 11 -9 45 -20 77 -28 81 -20 103 38 107 64 4 69 28 5
28 -64 1 -87 19 -86 68 2 62 26 152 41 152 7 0 38 -12 68 -26z m2438 6 c65 -6
389 -12 718 -14 330 -3 602 -6 604 -8 6 -7 -16 -227 -32 -312 -22 -121 -19
-372 6 -531 6 -33 10 -85 10 -116 0 -31 9 -98 20 -150 11 -52 20 -120 20 -152
l0 -58 -162 1 c-90 1 -242 6 -338 12 -260 15 -258 15 -495 22 -121 4 -263 13
-315 21 -52 8 -106 16 -120 17 -23 3 -26 8 -36 83 -6 44 -18 112 -27 150 -24
105 -85 439 -98 530 -6 44 -16 121 -23 170 -7 50 -14 128 -15 175 -1 47 -4
104 -7 128 l-6 42 88 0 c49 0 143 -5 208 -10z m1788 -21 c180 -1 332 -6 339
-10 9 -5 8 -29 -4 -95 -9 -49 -21 -120 -27 -159 -7 -38 -20 -117 -31 -175 -28
-156 -79 -656 -79 -787 0 -102 28 -93 -310 -93 l-298 0 -6 68 c-4 37 -13 126
-21 197 -42 368 -43 579 -5 835 11 74 23 157 26 184 l6 48 41 -6 c23 -3 189
-6 369 -7z m2508 -1021 c0 -18 -5 -40 -10 -48 -7 -11 -10 -2 -10 33 0 26 5 47
10 47 6 0 10 -15 10 -32z m305 -385 c-15 -84 -47 -303 -50 -333 -1 -19 -9 -71
-18 -115 -9 -44 -19 -120 -22 -170 -2 -49 -9 -106 -15 -125 -6 -19 -17 -75
-25 -125 -7 -49 -27 -171 -44 -270 -16 -99 -33 -207 -36 -240 -6 -58 -36 -228
-55 -312 -6 -22 -15 -96 -20 -163 -6 -66 -16 -133 -22 -148 -6 -15 -13 -54
-15 -87 -11 -167 -23 -260 -32 -263 -6 -2 -25 -18 -43 -36 -18 -18 -55 -42
-83 -55 -27 -13 -61 -31 -75 -41 -14 -10 -42 -21 -63 -25 -20 -4 -47 -15 -60
-24 -12 -10 -30 -21 -41 -24 -17 -7 -18 -3 -11 50 4 32 11 94 15 138 10 98 66
476 80 540 6 25 12 65 15 88 2 23 11 87 20 142 9 55 18 120 20 144 2 25 6 65
9 90 3 25 8 73 11 106 11 120 25 222 40 300 23 123 56 390 88 730 l12 120 70
17 c39 10 79 22 90 27 11 5 43 15 70 22 28 7 79 25 115 40 82 34 80 34 75 2z
m-5880 -48 c44 -14 89 -29 100 -34 44 -21 175 -61 198 -61 24 0 25 -4 37 -87
6 -49 18 -128 26 -178 8 -49 21 -140 29 -201 8 -61 26 -180 40 -265 15 -85 31
-188 36 -229 5 -41 14 -102 20 -135 28 -166 51 -320 59 -415 5 -58 19 -163 30
-235 11 -71 30 -191 41 -265 11 -74 25 -157 30 -185 4 -27 13 -77 18 -110 6
-33 17 -77 26 -97 8 -21 15 -39 15 -42 0 -5 -75 19 -180 57 -30 11 -62 26 -71
34 -8 7 -23 13 -31 13 -26 0 -48 11 -48 25 0 13 -87 91 -98 88 -4 -1 -24 107
-45 240 -45 280 -70 425 -97 552 -31 150 -39 205 -50 325 -9 110 -21 184 -41
261 -5 20 -9 53 -9 72 0 20 -7 74 -15 119 -9 46 -27 142 -40 213 -34 180 -46
259 -51 335 -3 36 -9 95 -14 132 -12 81 -12 98 -2 98 4 0 43 -11 87 -25z
m5401 -147 c-3 -35 -11 -117 -16 -183 -10 -119 -15 -158 -65 -510 -39 -272
-65 -485 -65 -528 0 -21 -4 -46 -9 -56 -5 -9 -12 -55 -15 -101 -2 -47 -12
-121 -21 -165 -16 -81 -36 -224 -55 -390 -6 -49 -17 -117 -24 -150 -8 -33 -20
-113 -27 -177 -12 -112 -13 -117 -38 -127 -61 -22 -100 -34 -156 -46 -33 -7
-96 -23 -140 -35 -110 -30 -345 -80 -377 -80 -6 0 -7 28 -3 68 3 37 8 90 11
117 2 28 9 77 15 110 9 55 28 243 35 355 3 43 13 136 35 319 5 46 19 188 29
315 10 127 23 256 29 286 5 30 15 89 21 130 6 41 15 94 20 118 6 23 10 64 10
90 0 26 5 74 10 107 10 61 42 383 44 442 1 36 0 36 124 53 41 6 78 8 83 4 5
-3 33 1 62 9 28 8 117 25 197 37 80 13 174 28 210 35 36 7 69 13 74 14 5 0 6
-26 2 -61z m-4911 22 c44 -5 123 -19 175 -30 52 -12 142 -25 200 -31 58 -5
137 -13 175 -17 l70 -7 13 -60 c20 -96 29 -151 52 -300 12 -77 26 -156 31
-176 5 -19 11 -125 13 -235 4 -197 9 -238 59 -494 14 -69 30 -174 37 -235 11
-105 19 -164 55 -375 21 -122 45 -407 45 -533 0 -96 0 -97 -22 -92 -60 15
-161 36 -233 49 -155 28 -394 92 -413 111 -8 7 -20 53 -27 103 -8 49 -18 107
-23 128 -6 22 -13 75 -16 120 -3 45 -15 114 -25 155 -17 66 -32 166 -46 314
-3 28 -12 95 -20 150 -25 165 -33 225 -49 340 -8 61 -24 157 -35 215 -11 58
-27 164 -36 235 -9 72 -23 164 -30 205 -8 41 -21 127 -30 190 -8 63 -20 142
-25 176 -15 93 -13 117 8 109 9 -3 53 -11 97 -15z m4121 -102 c-4 -13 -11 -79
-17 -148 -5 -69 -16 -156 -24 -195 -8 -38 -19 -110 -25 -160 -21 -178 -41
-332 -59 -465 -11 -74 -19 -142 -19 -150 0 -8 -3 -31 -6 -50 -3 -19 -13 -127
-21 -240 -8 -113 -20 -243 -25 -290 -38 -317 -47 -404 -60 -575 -18 -219 -12
-202 -73 -214 -47 -10 -146 -22 -307 -37 -30 -3 -61 -7 -69 -10 -7 -2 -95 -11
-195 -19 -99 -8 -221 -19 -271 -25 -49 -5 -133 -11 -186 -12 l-96 -3 -7 170
c-4 94 -9 184 -11 200 -1 17 -8 139 -14 272 -6 134 -17 298 -23 365 -16 155
-16 328 0 438 6 47 16 153 22 235 14 203 28 405 40 554 6 72 7 128 2 133 -5 5
-12 -16 -16 -49 -29 -249 -37 -332 -46 -503 -6 -107 -15 -220 -20 -250 -29
-161 -40 -314 -30 -414 5 -56 15 -173 20 -261 6 -88 15 -214 20 -280 5 -66 11
-214 15 -330 4 -115 10 -227 15 -247 l8 -38 -283 0 -283 0 -6 253 c-10 446
-19 751 -21 787 -6 80 -25 760 -26 950 -1 144 -4 187 -9 145 -11 -89 -11 -723
0 -1016 5 -140 11 -369 14 -509 3 -140 9 -334 12 -430 l7 -176 -79 4 c-43 1
-115 7 -159 12 -44 5 -143 14 -220 20 -77 6 -242 22 -367 36 -124 13 -230 24
-235 24 -4 0 -8 30 -8 68 0 139 -28 428 -67 697 -11 77 -24 169 -29 205 -5 36
-13 85 -19 110 -5 25 -19 110 -31 190 -11 80 -28 170 -37 200 -11 41 -16 111
-17 270 -2 179 -6 229 -23 300 -27 112 -40 180 -48 265 -3 39 -9 79 -11 90 -2
11 -7 40 -10 64 l-6 44 114 -7 c63 -4 143 -11 179 -16 98 -14 180 -19 460 -30
140 -6 302 -13 360 -17 137 -8 877 -7 1101 1 412 16 782 34 801 41 12 4 214
22 337 30 29 2 56 6 59 9 3 4 12 6 20 6 10 0 12 -7 8 -22z m-5886 -1383 c-9
-61 -20 -68 -20 -13 0 24 3 48 7 51 15 16 19 4 13 -38z m-189 -464 c-12 -22
-21 -58 -21 -80 0 -31 -6 -44 -27 -60 -16 -11 -22 -21 -15 -21 9 0 11 -7 7
-22 -13 -46 -29 -67 -57 -77 -15 -6 -27 -14 -26 -18 1 -4 -19 -30 -45 -58 -49
-51 -55 -51 -36 4 15 44 4 50 -17 9 -18 -35 -21 -115 -4 -132 7 -7 10 -5 10 5
0 7 10 30 22 49 l22 35 7 -25 c12 -43 10 -48 -36 -100 -25 -28 -45 -57 -45
-66 0 -8 -7 -17 -16 -21 -22 -8 -81 -63 -68 -63 6 0 23 9 37 20 14 11 30 20
35 20 6 0 15 15 21 33 6 18 29 50 51 71 22 21 41 45 42 54 0 10 2 22 3 27 1 6
5 31 10 58 5 35 14 52 35 67 16 11 31 20 35 20 21 0 -17 -256 -43 -282 -6 -6
-12 -17 -12 -23 0 -5 -21 -21 -47 -35 -51 -27 -103 -96 -76 -101 4 -1 15 11
24 27 8 16 31 39 50 52 19 12 44 32 57 43 l22 21 0 -50 c0 -45 -26 -119 -102
-292 -6 -14 -13 -36 -15 -50 -4 -32 28 29 62 116 13 34 31 77 41 95 l18 34 12
-40 c7 -22 13 -68 13 -102 1 -59 -1 -63 -21 -63 -13 0 -28 -4 -33 -8 -14 -10
-55 -96 -55 -116 0 -10 -4 -26 -10 -36 -5 -10 -12 -37 -15 -60 -9 -74 -20 -80
-46 -24 -13 27 -26 51 -29 54 -4 3 -19 44 -34 93 -15 48 -31 87 -35 87 -5 0
-11 19 -14 42 -4 32 -1 48 13 69 24 33 60 57 95 63 38 7 44 16 11 16 -35 0
-79 -23 -104 -54 -11 -14 -22 -22 -26 -19 -10 11 -7 153 4 153 6 0 10 5 10 11
0 5 -4 8 -9 5 -16 -10 -20 97 -5 115 18 20 18 29 -1 29 -12 0 -14 9 -10 38 2
20 7 66 10 102 8 78 38 153 74 181 14 11 54 48 88 81 35 33 100 86 145 118 70
48 84 55 86 40 2 -10 -6 -37 -17 -59z m1818 -701 c6 0 14 -6 17 -14 7 -19 167
-101 249 -127 39 -12 74 -26 80 -31 12 -11 30 -79 55 -205 10 -57 24 -112 30
-122 5 -11 10 -31 10 -44 0 -30 44 -208 58 -234 6 -10 13 -40 17 -68 4 -27 18
-86 31 -129 32 -105 31 -111 -3 -93 -16 9 -56 27 -91 41 -35 14 -82 39 -105
55 -23 16 -62 38 -87 50 -25 13 -58 40 -75 63 -16 23 -43 49 -60 58 -35 19
-55 53 -55 95 0 17 -5 48 -10 70 -5 22 -13 74 -19 115 -13 98 -68 475 -76 520
-6 31 -5 33 8 18 8 -10 19 -18 26 -18z m5091 -193 c-11 -67 -27 -160 -35 -207
-8 -47 -22 -148 -31 -225 -17 -139 -26 -175 -45 -175 -5 0 -20 -9 -32 -21 -12
-11 -35 -28 -52 -36 -16 -9 -43 -27 -59 -40 -17 -14 -40 -29 -53 -34 -13 -5
-23 -13 -23 -19 0 -5 -5 -10 -11 -10 -15 0 -121 -51 -143 -69 -18 -15 -19 -15
-13 9 4 14 11 64 16 110 5 47 16 126 25 175 8 50 24 164 36 255 12 91 27 199
34 240 l12 75 74 26 c41 14 89 34 105 43 17 9 36 16 44 16 8 0 25 10 39 23 13
12 47 34 75 48 l52 25 3 -43 c2 -24 -6 -98 -18 -166z m-4530 -40 c71 -21 363
-86 460 -102 41 -7 97 -19 123 -25 l48 -13 -6 -51 c-6 -51 10 -626 22 -784 l6
-83 -39 6 c-21 4 -65 15 -97 26 -31 10 -67 19 -80 19 -30 0 -134 35 -242 81
-49 22 -101 41 -114 44 -33 6 -34 9 -38 63 -6 78 -8 90 -15 98 -5 4 -8 20 -8
36 0 15 -3 28 -7 28 -5 0 -9 18 -10 41 0 22 -8 46 -16 52 -9 8 -17 39 -21 89
-3 42 -14 98 -25 125 -15 38 -101 366 -101 385 0 6 78 -11 160 -35z m4110 26
c0 -10 -6 -45 -14 -78 -8 -33 -17 -91 -21 -130 -4 -38 -9 -81 -11 -95 -3 -34
-41 -275 -59 -380 -8 -47 -15 -106 -15 -132 0 -40 -3 -48 -22 -53 -39 -11
-130 -47 -206 -81 -61 -29 -278 -88 -389 -108 l-33 -5 0 47 c0 26 5 65 10 87
5 22 11 77 14 122 2 45 8 87 11 93 7 11 20 105 30 210 3 30 8 66 11 80 4 14 8
48 10 75 2 28 6 59 8 70 2 11 4 50 5 86 l1 66 58 6 c31 4 110 20 175 36 65 17
155 37 200 45 45 8 111 24 147 34 84 25 90 26 90 5z m-714 -170 c-3 -16 -15
-118 -26 -228 -11 -110 -25 -219 -30 -241 -5 -23 -17 -131 -25 -240 -9 -109
-17 -199 -18 -199 -12 -7 -106 -31 -162 -41 -38 -7 -99 -20 -135 -28 -36 -9
-99 -16 -140 -16 -42 0 -100 -6 -130 -14 -30 -8 -100 -17 -155 -20 -55 -3
-146 -11 -201 -17 -57 -7 -131 -8 -169 -4 l-68 7 7 46 c14 108 36 254 55 357
22 123 41 337 41 462 0 68 3 84 18 91 9 5 109 12 222 15 250 7 606 44 835 87
79 15 87 13 81 -17z m-2531 -22 c33 -6 92 -13 130 -16 39 -3 93 -10 120 -15
44 -9 427 -30 531 -30 l40 0 13 -137 c15 -167 25 -241 45 -353 14 -76 39 -371
37 -443 0 -18 4 -27 12 -24 8 3 12 35 12 105 0 163 -12 272 -65 582 -5 30 -12
103 -16 163 l-7 107 252 0 251 0 -1 -37 c-2 -111 -29 -396 -43 -447 -8 -32
-24 -138 -36 -235 -11 -97 -23 -191 -26 -208 l-5 -33 -97 0 c-53 -1 -149 -1
-212 -2 -169 -1 -386 9 -455 22 -131 25 -157 29 -262 35 -103 6 -176 17 -323
48 l-65 14 -7 199 c-4 109 -11 298 -16 419 -5 121 -7 240 -4 264 l4 43 67 -5
c36 -3 93 -11 126 -16z"/>
<path d="M8333 8132 c-39 -19 -43 -31 -8 -24 14 2 30 13 36 23 5 11 8 18 7 18
-2 -1 -18 -9 -35 -17z"/>
<path d="M8421 8143 c-1 -7 -8 -13 -17 -13 -25 0 -74 -56 -74 -84 0 -13 -7
-32 -16 -40 -9 -9 -19 -38 -24 -64 l-8 -47 -1 43 c0 24 3 51 7 60 5 9 6 33 2
52 -5 32 -7 28 -18 -37 -14 -85 -16 -180 -3 -188 9 -5 41 -62 41 -72 0 -9 -29
-1 -33 10 -4 8 -6 8 -6 -2 -1 -8 11 -28 26 -43 22 -23 35 -28 74 -28 40 0 49
4 65 28 33 48 44 74 44 99 0 31 18 65 31 58 5 -4 9 -1 9 4 0 6 -4 11 -10 11
-5 0 -10 25 -10 55 0 50 -5 69 -32 115 -4 8 -17 33 -27 55 -11 22 -20 34 -20
28z m15 -138 c1 -29 0 -32 -3 -10 -3 16 -12 35 -21 42 -16 13 -15 14 3 11 16
-3 20 -11 21 -43z m-100 -79 c-4 -24 -14 -52 -22 -62 -15 -18 -15 -18 -8 1 4
11 12 44 18 73 12 61 21 52 12 -12z m124 -52 c0 -30 -3 -53 -7 -51 -8 5 -5
107 3 107 2 0 4 -25 4 -56z m-60 8 c0 -10 -6 -27 -14 -38 -13 -17 -13 -15 -3
19 13 41 17 46 17 19z m43 -92 c-3 -12 -8 -19 -11 -16 -5 6 5 36 12 36 2 0 2
-9 -1 -20z m-99 -16 c3 -8 2 -12 -4 -9 -6 3 -10 10 -10 16 0 14 7 11 14 -7z
m46 -8 c0 -8 -6 -16 -14 -19 -10 -4 -12 0 -9 14 6 22 23 26 23 5z m34 -18
c-12 -22 -37 -48 -44 -48 -5 0 -11 7 -14 16 -3 8 -2 13 3 10 5 -3 20 3 32 14
28 23 33 24 23 8z m-81 -20 c7 -27 5 -30 -17 -22 -19 7 -22 44 -2 44 7 0 16
-10 19 -22z"/>
<path d="M8230 7991 c-12 -23 -15 -143 -5 -183 5 -18 14 -28 26 -28 23 0 25
28 3 37 -15 5 -16 18 -10 100 3 51 4 93 2 93 -3 0 -10 -9 -16 -19z"/>
<path d="M8087 7340 c-3 -11 -1 -20 4 -20 5 0 9 9 9 20 0 11 -2 20 -4 20 -2 0
-6 -9 -9 -20z"/>
<path d="M2800 7560 c-6 -12 -9 -24 -7 -27 3 -2 11 5 17 17 6 12 9 24 7 27 -3
2 -11 -5 -17 -17z"/>
<path d="M1855 8000 c3 -5 8 -10 11 -10 2 0 4 5 4 10 0 6 -5 10 -11 10 -5 0
-7 -4 -4 -10z"/>
<path d="M1740 7980 c0 -12 50 -33 58 -25 7 7 -29 34 -45 35 -7 0 -13 -5 -13
-10z"/>
<path d="M1840 7936 c0 -2 7 -6 15 -10 8 -3 15 -1 15 4 0 6 -7 10 -15 10 -8 0
-15 -2 -15 -4z"/>
<path d="M1480 7765 c7 -9 15 -13 17 -11 7 7 -7 26 -19 26 -6 0 -6 -6 2 -15z"/>
<path d="M1475 7723 c16 -16 116 -53 141 -53 49 0 31 19 -34 34 -37 8 -78 18
-92 22 -16 4 -21 3 -15 -3z"/>
<path d="M1400 6743 c-14 -3 -29 -9 -34 -14 -6 -5 -18 -9 -28 -9 -10 0 -18 -5
-18 -11 0 -7 19 -8 58 -4 76 9 94 14 89 28 -4 13 -29 17 -67 10z"/>
<path d="M3220 4969 c0 -5 5 -7 10 -4 6 3 10 8 10 11 0 2 -4 4 -10 4 -5 0 -10
-5 -10 -11z"/>
<path d="M810 2450 c0 -5 5 -10 10 -10 6 0 10 5 10 10 0 6 -4 10 -10 10 -5 0
-10 -4 -10 -10z"/>
<path d="M1556 6271 c-4 -5 -2 -12 3 -15 5 -4 12 -2 15 3 4 5 2 12 -3 15 -5 4
-12 2 -15 -3z"/>
<path d="M1476 6224 c-9 -24 -7 -104 3 -104 5 0 11 27 13 60 3 58 -4 77 -16
44z"/>
<path d="M1341 6172 c0 -18 -5 -41 -11 -51 -8 -16 -13 -216 -9 -411 1 -41 -4
-146 -11 -234 l-14 -158 23 -18 23 -17 -26 -26 c-15 -15 -26 -37 -26 -52 0
-14 -6 -38 -14 -53 -8 -15 -17 -45 -21 -66 -4 -21 -14 -40 -22 -43 -11 -4 -10
-8 4 -18 27 -20 23 -114 -9 -196 -27 -70 -46 -189 -30 -189 18 0 28 25 30 75
2 28 6 53 10 57 12 12 102 27 102 17 0 -5 9 -9 20 -9 24 0 26 13 5 30 -8 7
-15 23 -15 36 0 12 -4 25 -9 29 -5 3 -9 -8 -9 -25 1 -37 2 -36 -49 -45 -33 -5
-43 -4 -43 7 0 8 5 19 10 24 21 21 38 139 27 187 -9 39 -7 53 11 98 12 28 22
62 22 75 0 13 6 27 13 31 24 16 37 40 42 81 5 42 -8 59 -18 22 -9 -35 -24 -21
-30 28 -4 30 -1 61 9 88 13 35 21 42 56 50 26 6 47 18 57 34 l16 25 -32 -23
c-17 -12 -45 -22 -62 -22 -26 0 -31 4 -31 24 0 25 15 35 65 43 41 6 75 30 75
52 0 10 3 33 6 50 4 20 3 31 -5 31 -6 0 -11 -7 -11 -16 0 -43 -64 -104 -109
-104 -3 0 -6 45 -6 100 0 96 1 99 21 94 12 -3 28 1 37 10 8 9 21 16 27 16 6 0
8 5 4 11 -4 8 -9 8 -17 0 -6 -6 -25 -11 -43 -11 -30 0 -33 3 -39 41 -8 46 4
241 15 249 4 3 4 28 0 55 -6 39 -8 43 -9 17z"/>
<path d="M1574 6164 c-17 -14 -17 -15 -1 -10 10 3 23 6 28 6 5 0 9 5 9 10 0
14 -13 12 -36 -6z"/>
<path d="M1462 6088 c-7 -7 -12 -18 -12 -25 0 -7 -14 -20 -32 -29 -30 -15 -32
-15 -45 2 -17 23 -28 12 -13 -15 13 -25 17 -25 62 -6 22 9 40 25 48 45 14 34
10 46 -8 28z"/>
<path d="M1427 6004 c-4 -4 -7 -14 -7 -23 0 -11 3 -12 11 -4 6 6 10 16 7 23
-2 6 -7 8 -11 4z"/>
<path d="M1462 5888 c-16 -16 -15 -28 3 -28 8 0 15 2 15 4 0 2 3 11 6 20 7 19
-7 21 -24 4z"/>
<path d="M1370 4950 c0 -5 14 -10 30 -10 17 0 30 4 30 8 0 4 -13 9 -30 10 -16
1 -30 -2 -30 -8z"/>
<path d="M1337 4943 c-4 -3 -7 -11 -7 -17 0 -6 5 -5 12 2 6 6 9 14 7 17 -3 3
-9 2 -12 -2z"/>
<path d="M1280 4681 c0 -5 -3 -18 -7 -28 -6 -16 -5 -16 10 -4 19 15 23 41 7
41 -5 0 -10 -4 -10 -9z"/>
<path d="M1407 4622 c-30 -31 -28 -72 4 -72 21 0 26 16 7 23 -10 3 -9 13 5 37
23 42 17 47 -16 12z"/>
<path d="M1253 4303 c-24 -16 -30 -33 -14 -33 6 0 23 11 38 25 32 28 13 34
-24 8z"/>
<path d="M1104 4185 c-3 -8 -3 -18 0 -24 3 -5 2 -21 -4 -35 -12 -32 0 -33 27
-3 15 15 20 30 16 50 -6 29 -30 37 -39 12z"/>
<path d="M936 3599 c-8 -43 -8 -59 3 -59 12 0 22 73 12 83 -4 4 -11 -6 -15
-24z"/>
<path d="M1480 1932 c0 -4 12 -13 28 -19 15 -7 54 -38 87 -69 32 -30 76 -64
96 -75 21 -10 41 -23 44 -29 7 -11 80 -60 90 -60 4 0 -2 13 -11 29 -9 16 -44
44 -77 63 l-59 33 43 7 c34 5 73 -1 173 -29 l129 -35 86 16 c80 15 252 15 318
1 32 -7 67 -127 58 -197 -12 -82 -23 -87 -167 -83 -153 4 -174 9 -183 43 -16
69 -53 116 -41 52 3 -16 8 -43 12 -59 l5 -29 -93 5 c-138 8 -162 14 -166 43
-6 49 -16 55 -21 15 -5 -36 -9 -40 -31 -36 -14 1 -38 12 -53 23 -16 12 -45 22
-66 23 -20 2 -67 6 -106 10 -77 8 -83 -4 -7 -16 26 -4 67 -11 92 -15 25 -4 58
-17 73 -28 18 -13 46 -21 80 -23 29 -1 108 -9 176 -17 91 -11 128 -12 138 -4
9 7 17 7 26 0 19 -16 266 -18 299 -2 31 15 46 47 50 110 4 60 -31 189 -54 201
-24 13 -294 16 -385 5 -62 -8 -81 -6 -130 12 -85 30 -159 43 -203 36 -56 -9
-81 0 -151 56 -56 45 -99 63 -99 42z"/>
<path d="M1397 1773 c9 -25 64 -93 75 -93 11 0 -16 49 -46 83 -29 31 -38 34
-29 10z"/>
<path d="M1340 1739 c0 -11 24 -39 34 -39 3 0 0 11 -6 25 -11 25 -28 34 -28
14z"/>
<path d="M1815 1620 c3 -5 8 -10 11 -10 2 0 4 5 4 10 0 6 -5 10 -11 10 -5 0
-7 -4 -4 -10z"/>
<path d="M10080 80 l0 -80 80 0 80 0 0 80 0 80 -80 0 -80 0 0 -80z"/>
</g>
</svg>
